<?xml version="1.0" encoding="utf-8"?>
<!-- Generator: Adobe Illustrator 19.0.0, SVG Export Plug-In . SVG Version: 6.00 Build 0)  -->
<svg version="1.1" id="图层_1" xmlns="http://www.w3.org/2000/svg" xmlns:xlink="http://www.w3.org/1999/xlink" x="0px" y="0px"
	 viewBox="0 0 42 42" style="enable-background:new 0 0 42 42;" xml:space="preserve">
<style type="text/css">
	.st0{fill:#FFFFFF;}
	.st1{fill:#9A9A9A;}
</style>
<g>
	<path class="st0" d="M21,41.5C9.7,41.5,0.5,32.3,0.5,21C0.5,9.7,9.7,0.5,21,0.5c11.3,0,20.5,9.2,20.5,20.5
		C41.5,32.3,32.3,41.5,21,41.5z"/>
	<path class="st1" d="M21,1c11,0,20,9,20,20s-9,20-20,20S1,32,1,21S10,1,21,1 M21,0C9.4,0,0,9.4,0,21c0,11.6,9.4,21,21,21
		c11.6,0,21-9.4,21-21C42,9.4,32.6,0,21,0L21,0z"/>
</g>
<rect x="11" y="20.5" class="st1" width="19.8" height="0.9"/>
<rect x="11.1" y="20.5" class="st1" width="19.8" height="0.9"/>
<rect x="20.5" y="11.1" class="st1" width="0.9" height="19.8"/>
</svg>
