<?xml version="1.0" standalone="no"?><!DOCTYPE svg PUBLIC "-//W3C//DTD SVG 1.1//EN" "http://www.w3.org/Graphics/SVG/1.1/DTD/svg11.dtd"><svg t="1509539730801" class="icon" style="" viewBox="0 0 1024 1024" version="1.1" xmlns="http://www.w3.org/2000/svg" p-id="1009" xmlns:xlink="http://www.w3.org/1999/xlink" width="200" height="200"><defs><style type="text/css"></style></defs><path d="M0 512a512 512 0 1 0 1024 0A512 512 0 1 0 0 512z" fill="#FFC000" p-id="1010"></path><path d="M675.5 627.5l-196-15v-1h1c4.07-4.983 10.521-7.354 16-11 12.279-8.173 24.441-16.593 37-25 32.779-21.943 64.879-46.359 97-69 8.688-6.123 28.43-17.154 34-25 2.912-4.101 4.984-11.664 2-16-2.568-7.41-13.54-5-23-5h-66c-6.42 3.923-41.57 1-52 1l-129 2c-10.553 0.019-46.546-2.979-53 1 13.14-0.131 26.634 2.361 38 5 15.244 3.539 30.904 2.732 45 6l16 1c23.691 5.543 51.237 5.503 75 11 15.25 3.528 30.902 2.742 45 6 6.826 1.577 14.427-0.524 19 3h-2c-13.136 11.763-38.102 20.281-54 30-39.758 24.304-81.584 46.099-121 71-8.492 5.365-23.453 13.862-28 23-3.053 6.135-1.42 20.368 4 23h16l279-13v-3c8.914-0.235 25.213-1.042 31 3l-30 1 30 174h-2c-9.291-9.05-35.19-18.343-48-25-32.75-17.019-65.816-33.78-99-51-11.486-5.961-23.008-11.784-35-18-2.514-1.303-8.249-7.001-12-6-1.5 0.4-5.297 4.115-7 5-10.6 5.506-20.986 10.775-31 16-35.783 18.673-71.217 35.408-107 54-14.444 7.504-32.19 20.383-48 25l37-213c-10.693-7.045-18.961-18.149-28-27-16.179-15.843-32.912-33.332-51-47l-21-22c-14.288-10.803-26.42-24.429-39-37-5.762-5.758-13.433-10.095-18-17 12.344-1.181 26.415-3.31 38-6 17.036-3.957 34.188-3.265 50-7 23.373-5.521 47.682-4.737 70-10 13.091-3.087 51.307-3.053 59-9 4.761-5.361 6.533-13.357 10-20 7.261-13.912 14.445-28.479 22-43 22.066-42.415 44.235-85.66 65-129 0.805 1.021 0.355 0.274 1 2 4.234 3.632 5.286 9.783 8 15 7.113 13.674 13.668 27.906 21 42l68 134c27.67 2.646 60.508 6.741 87 13 23.373 5.521 47.682 4.737 70 10 13.42 3.164 52.082 2.879 60 9-12.434 8.167-20.366 22.201-32 31-8.623 6.522-14.635 15.673-23 22-23.232 17.572-43.449 40.527-64 61-6.999 6.972-36.936 30.325-38 39 3.214 4.894 5.154 24.128 6 31z" fill="#FFFFFF" p-id="1011"></path></svg>