<?xml version="1.0" standalone="no"?><!DOCTYPE svg PUBLIC "-//W3C//DTD SVG 1.1//EN" "http://www.w3.org/Graphics/SVG/1.1/DTD/svg11.dtd"><svg t="1509539866340" class="icon" style="" viewBox="0 0 1024 1024" version="1.1" xmlns="http://www.w3.org/2000/svg" p-id="5362" xmlns:xlink="http://www.w3.org/1999/xlink" width="200" height="200"><defs><style type="text/css"></style></defs><path d="M427.392 601.045333c-16.896-6.997333-38.698667 0.213333-49.066667 16.341334-10.581333 16.213333-5.632 35.456 11.093334 43.008 17.066667 7.68 39.594667 0.384 50.133333-16.213334 10.368-16.810667 4.906667-35.968-12.16-43.136z m41.6-17.066666c-6.442667-2.517333-14.549333 0.554667-18.346667 6.826666-3.712 6.357333-1.664 13.568 4.821334 16.213334 6.613333 2.688 15.018667-0.426667 18.816-6.869334 3.669333-6.485333 1.28-13.738667-5.290667-16.128z m-26.325333-111.701334c-108.970667 10.666667-191.573333 76.544-184.490667 147.157334 7.04 70.656 101.12 119.296 210.133333 108.672 108.970667-10.666667 191.573333-76.544 184.490667-147.2-7.04-70.656-101.12-119.296-210.133333-108.629334z m95.616 166.613334c-22.229333 49.664-86.186667 76.16-140.458667 58.88-52.394667-16.725333-74.581333-67.84-51.626667-113.834667 22.485333-45.098667 81.109333-70.613333 132.949334-57.301333 53.717333 13.696 81.066667 63.701333 59.136 112.256zM522.069333 35.370667C256.341333 35.370667 40.96 248.746667 40.96 512c0 263.253333 215.381333 476.629333 481.024 476.629333 265.685333 0 481.066667-213.376 481.066667-476.629333C1003.093333 248.746667 787.712 35.370667 522.026667 35.370667z m-53.077333 740.053333c-136.533333 0-276.181333-65.322667-276.181333-172.8 0-56.234667 36.053333-121.216 98.133333-182.570667 82.944-81.834667 179.626667-119.125333 216.021333-83.2 16.042667 15.786667 17.578667 43.221333 7.253334 75.946667-5.376 16.469333 15.701333 7.381333 15.701333 7.424 66.986667-27.733333 125.44-29.354667 146.858667 0.768 11.392 16.085333 10.282667 38.613333-0.213334 64.725333-4.864 12.032 1.493333 13.909333 10.794667 16.64 37.717333 11.562667 79.786667 39.552 79.786667 88.789334 0 81.578667-119.125333 184.32-298.154667 184.32z m247.210667-341.802667a40.490667 40.490667 0 0 0-8.618667-40.106666 41.941333 41.941333 0 0 0-39.509333-12.586667 21.418667 21.418667 0 1 1-9.045334-41.898667c28.672-6.016 59.733333 2.730667 80.768 25.770667 21.077333 23.04 26.752 54.485333 17.706667 82.005333a21.76 21.76 0 0 1-27.306667 13.824 21.418667 21.418667 0 0 1-13.952-27.008z m126.464 40.32v0.128a25.301333 25.301333 0 0 1-31.744 15.957334 24.832 24.832 0 0 1-16.256-31.317334 121.216 121.216 0 0 0-25.898667-119.722666 124.885333 124.885333 0 0 0-117.930667-37.674667 25.173333 25.173333 0 0 1-29.866666-19.2 24.874667 24.874667 0 0 1 19.370666-29.482667 175.616 175.616 0 0 1 165.888 53.034667 170.453333 170.453333 0 0 1 36.437334 168.277333z" fill="#EC363D" p-id="5363"></path></svg>