<?xml version="1.0" standalone="no"?><!DOCTYPE svg PUBLIC "-//W3C//DTD SVG 1.1//EN" "http://www.w3.org/Graphics/SVG/1.1/DTD/svg11.dtd"><svg t="1509539832169" class="icon" style="" viewBox="0 0 1024 1024" version="1.1" xmlns="http://www.w3.org/2000/svg" p-id="3584" xmlns:xlink="http://www.w3.org/1999/xlink" width="200" height="200"><defs><style type="text/css"></style></defs><path d="M516.739726 1023.935575a511.98912 511.98912 0 1 1 507.295886-511.989121 509.685169 509.685169 0 0 1-507.295886 511.989121z m-101.800504-767.983681c-135.762448 0-246.949419 88.488786-246.949419 200.913064a192.507909 192.507909 0 0 0 98.813901 159.569943l-24.703476 71.081156 86.312833-41.428453a440.438641 440.438641 0 0 0 86.526161 11.818415c7.722503 0 15.445005-0.341326 23.039511-0.89598a169.511065 169.511065 0 0 1-7.594506-49.534948 198.609113 198.609113 0 0 1 209.91554-187.004026 220.112656 220.112656 0 0 1 23.807494 1.40797c-21.375546-94.973982-127.741285-165.713812-249.168039-165.713812z m240.976213 177.190902c-117.458837 0-210.000871 76.798368-210.000871 171.516355s92.542033 171.431024 210.000871 171.431024a322.339817 322.339817 0 0 0 74.110425-11.818416l67.753227 35.497913-18.559606-59.092078a178.001551 178.001551 0 0 0 86.483496-136.018443c0-94.29133-98.771234-171.089698-209.787542-171.089698z m67.753227 141.948983a23.679497 23.679497 0 1 1 0-47.316328 24.532812 24.532812 0 1 1 0 47.529657z m-135.84778 0a23.679497 23.679497 0 1 1 0-47.316328 24.532812 24.532812 0 1 1 0 47.529657z m-80.29696-159.655274a30.29269 30.29269 0 1 1 0-59.006746 29.610037 29.610037 0 1 1 0 59.220075z m-172.838994 0a30.29269 30.29269 0 1 1 0-59.006746 29.610037 29.610037 0 1 1 0 59.220075z" fill="#11ac36" p-id="3585"></path></svg>